# xmcd
#
# Track frame offsets:
#	150
#	13990
#	33602
#	53607
#	67082
#	77752
#	97104
#	111397
#	122060
#	141152
#	153810
#	171917
#	184790
#	198247
#	218950
#
# Disc length: 3119
#
# Revision: 2
# Processed by: cddbd v1.5.1PL0 Copyright (c) Steve Scherf et al.
# Submitted via: Feurio! 1.66 - http://www.feurio.com
# Normalized: r1:DSETVAR1
#
DISCID=da0c2d0f
DTITLE=Various Artist - Avalon Blues ATribut To The Music Of Mississippi John Hurt
DYEAR=2001
DGENRE=blues
TTITLE0=Chris Smither - Frankie and Albert
TTITLE1=Bruce Cockburn - Avalon, My Home Town
TTITLE2=Lucinda Williams - Angels Laid Him Away
TTITLE3=Alvin Youngblood Hart - Here Am I, Oh Lord, Send Me
TTITLE4=Steve and Justin Earle - Candy Man
TTITLE5=Peter Case and Dave Alvin - Monday Morning Blues
TTITLE6=Ben Harper - Sliding Delta
TTITLE7=Geoff Muldaur - Chicken
TTITLE8=Mark Selby - Make Me A Pallet On Your Floor
TTITLE9=Beck - Stagolee
TTITLE10=Victoria Williams - Since I've Laid My Burden Down
TTITLE11=Bill Morrissey - Pay Day
TTITLE12=Taj Mahal - My Creole Belle
TTITLE13=Gillian Welch - Beulah Land
TTITLE14=John Hiatt - I'm Satisfied
EXTD=
EXTT0=
EXTT1=
EXTT2=
EXTT3=
EXTT4=
EXTT5=
EXTT6=
EXTT7=
EXTT8=
EXTT9=
EXTT10=
EXTT11=
EXTT12=
EXTT13=
EXTT14=
PLAYORDER=
